<svg xmlns="http://www.w3.org/2000/svg" xmlns:xlink="http://www.w3.org/1999/xlink" width="8000" zoomAndPan="magnify" viewBox="0 0 6000 1499.999933" height="2000" preserveAspectRatio="xMidYMid meet" version="1.2"><defs><clipPath id="0194552b0d"><path d="M 37.5 524.464844 L 929.558594 524.464844 L 929.558594 1275.671875 L 37.5 1275.671875 Z M 37.5 524.464844 "/></clipPath><clipPath id="93cd99e251"><path d="M 483.523438 524.464844 L 929.542969 1275.671875 L 37.5 1275.671875 Z M 483.523438 524.464844 "/></clipPath><clipPath id="495dc6b601"><path d="M 37.972656 672.113281 L 930.03125 672.113281 L 930.03125 1423.316406 L 37.972656 1423.316406 Z M 37.972656 672.113281 "/></clipPath><clipPath id="cae242e394"><path d="M 483.992188 672.113281 L 930.015625 1423.316406 L 37.972656 1423.316406 Z M 483.992188 672.113281 "/></clipPath><clipPath id="1aa219cb1d"><path d="M 423.46875 896.160156 L 543.46875 896.160156 L 543.46875 1047.660156 L 423.46875 1047.660156 Z M 423.46875 896.160156 "/></clipPath><clipPath id="b6074313ab"><path d="M 0 1312.566406 L 6000 1312.566406 L 6000 1500 L 0 1500 Z M 0 1312.566406 "/></clipPath></defs><g id="61ccddc997"><path style="fill:none;stroke-width:110;stroke-linecap:butt;stroke-linejoin:miter;stroke:#922330;stroke-opacity:1;stroke-miterlimit:4;" d="M -0.00203762 55.001759 L 1160.977229 55.001759 " transform="matrix(0.75,0,0,0.75,483.993716,524.947903)"/><path style="fill:none;stroke-width:110;stroke-linecap:butt;stroke-linejoin:miter;stroke:#922330;stroke-opacity:1;stroke-miterlimit:4;" d="M 0.000790594 54.999654 L 1041.329037 54.999654 " transform="matrix(0.749775,0,0,0.749775,573.729876,691.840768)"/><path style="fill:none;stroke-width:110;stroke-linecap:butt;stroke-linejoin:miter;stroke:#922330;stroke-opacity:1;stroke-miterlimit:4;" d="M 0.000790594 54.997957 L 1041.329037 54.997957 " transform="matrix(0.749775,0,0,0.749775,573.729876,858.775634)"/><path style="fill:none;stroke-width:110;stroke-linecap:butt;stroke-linejoin:miter;stroke:#922330;stroke-opacity:1;stroke-miterlimit:4;" d="M 0.000790594 55.001567 L 1041.329037 55.001567 " transform="matrix(0.749775,0,0,0.749775,573.729876,1025.710428)"/><path style="fill:none;stroke-width:110;stroke-linecap:butt;stroke-linejoin:miter;stroke:#922330;stroke-opacity:1;stroke-miterlimit:4;" d="M 0.000790594 54.999711 L 1041.329037 54.999711 " transform="matrix(0.749775,0,0,0.749775,573.729876,1192.645413)"/><g clip-rule="nonzero" clip-path="url(#0194552b0d)"><g clip-rule="nonzero" clip-path="url(#93cd99e251)"><path style=" stroke:none;fill-rule:nonzero;fill:#002663;fill-opacity:1;" d="M 37.5 524.464844 L 929.558594 524.464844 L 929.558594 1275.671875 L 37.5 1275.671875 Z M 37.5 524.464844 "/></g></g><g clip-rule="nonzero" clip-path="url(#495dc6b601)"><g clip-rule="nonzero" clip-path="url(#cae242e394)"><path style=" stroke:none;fill-rule:nonzero;fill:#ffffff;fill-opacity:1;" d="M 37.972656 672.113281 L 930.03125 672.113281 L 930.03125 1423.316406 L 37.972656 1423.316406 Z M 37.972656 672.113281 "/></g></g><g clip-rule="nonzero" clip-path="url(#1aa219cb1d)"><path style=" stroke:none;fill-rule:nonzero;fill:#002663;fill-opacity:1;" d="M 529.578125 968.128906 L 487.207031 968.128906 L 487.207031 908.570312 L 529.578125 908.570312 Z M 529.578125 1035.1875 L 487.207031 1035.1875 L 487.207031 975.625 L 529.578125 975.625 Z M 479.710938 968.128906 L 437.339844 968.128906 L 437.339844 908.570312 L 479.710938 908.570312 Z M 479.710938 1035.1875 L 437.339844 1035.1875 L 437.339844 975.625 L 479.710938 975.625 Z M 423.570312 896.167969 L 423.570312 1047.585938 L 543.347656 1047.585938 L 543.347656 896.167969 L 423.570312 896.167969 "/></g><g style="fill:#002663;fill-opacity:1;"><g transform="translate(17.524264, 480.545576)"><path style="stroke:none" d="M 230.421875 -167.515625 L 230.421875 -107.828125 C 230.421875 -71.453125 221.539062 -43.53125 203.78125 -24.0625 C 186.019531 -4.59375 159.8125 5.140625 125.15625 5.140625 C 90.5 5.140625 64.289062 -4.59375 46.53125 -24.0625 C 28.769531 -43.53125 19.890625 -71.453125 19.890625 -107.828125 L 19.890625 -341.453125 C 19.890625 -377.828125 28.769531 -405.75 46.53125 -425.21875 C 64.289062 -444.6875 90.5 -454.421875 125.15625 -454.421875 C 159.8125 -454.421875 186.019531 -444.6875 203.78125 -425.21875 C 221.539062 -405.75 230.421875 -377.828125 230.421875 -341.453125 L 230.421875 -297.8125 L 163.671875 -297.8125 L 163.671875 -345.953125 C 163.671875 -362.203125 160.351562 -373.644531 153.71875 -380.28125 C 147.082031 -386.914062 138.203125 -390.234375 127.078125 -390.234375 C 115.953125 -390.234375 107.070312 -386.914062 100.4375 -380.28125 C 93.8125 -373.644531 90.5 -362.203125 90.5 -345.953125 L 90.5 -103.328125 C 90.5 -87.066406 93.8125 -75.726562 100.4375 -69.3125 C 107.070312 -62.894531 115.953125 -59.6875 127.078125 -59.6875 C 138.203125 -59.6875 147.082031 -62.894531 153.71875 -69.3125 C 160.351562 -75.726562 163.671875 -87.066406 163.671875 -103.328125 L 163.671875 -167.515625 Z M 230.421875 -167.515625 "/></g></g><g style="fill:#002663;fill-opacity:1;"><g transform="translate(265.268317, 480.545576)"><path style="stroke:none" d="M 93.0625 -449.28125 L 93.0625 -102.6875 C 93.0625 -86.425781 96.378906 -75.085938 103.015625 -68.671875 C 109.648438 -62.253906 118.53125 -59.046875 129.65625 -59.046875 C 140.78125 -59.046875 149.65625 -62.253906 156.28125 -68.671875 C 162.914062 -75.085938 166.234375 -86.425781 166.234375 -102.6875 L 166.234375 -449.28125 L 232.984375 -449.28125 L 232.984375 -107.1875 C 232.984375 -70.8125 224.101562 -42.890625 206.34375 -23.421875 C 188.59375 -3.953125 162.382812 5.78125 127.71875 5.78125 C 93.0625 5.78125 66.851562 -3.953125 49.09375 -23.421875 C 31.34375 -42.890625 22.46875 -70.8125 22.46875 -107.1875 L 22.46875 -449.28125 Z M 93.0625 -449.28125 "/></g></g><g style="fill:#002663;fill-opacity:1;"><g transform="translate(520.71417, 480.545576)"><path style="stroke:none" d="M 173.296875 0 C 172.441406 -3 171.582031 -5.78125 170.71875 -8.34375 C 169.863281 -10.90625 169.113281 -14.113281 168.46875 -17.96875 C 167.832031 -21.820312 167.40625 -26.742188 167.1875 -32.734375 C 166.976562 -38.722656 166.875 -46.210938 166.875 -55.203125 L 166.875 -125.796875 C 166.875 -146.765625 163.234375 -161.523438 155.953125 -170.078125 C 148.679688 -178.640625 136.914062 -182.921875 120.65625 -182.921875 L 96.28125 -182.921875 L 96.28125 0 L 25.671875 0 L 25.671875 -449.28125 L 132.21875 -449.28125 C 169.007812 -449.28125 195.640625 -440.722656 212.109375 -423.609375 C 228.585938 -406.492188 236.828125 -380.609375 236.828125 -345.953125 L 236.828125 -310.640625 C 236.828125 -264.429688 221.425781 -234.050781 190.625 -219.5 C 208.59375 -212.226562 220.890625 -200.351562 227.515625 -183.875 C 234.148438 -167.40625 237.46875 -147.40625 237.46875 -123.875 L 237.46875 -54.5625 C 237.46875 -43.4375 237.894531 -33.703125 238.75 -25.359375 C 239.613281 -17.015625 241.753906 -8.5625 245.171875 0 Z M 96.28125 -385.09375 L 96.28125 -247.109375 L 123.875 -247.109375 C 137.132812 -247.109375 147.507812 -250.53125 155 -257.375 C 162.488281 -264.21875 166.234375 -276.625 166.234375 -294.59375 L 166.234375 -338.890625 C 166.234375 -355.148438 163.34375 -366.914062 157.5625 -374.1875 C 151.789062 -381.457031 142.703125 -385.09375 130.296875 -385.09375 Z M 96.28125 -385.09375 "/></g></g><g style="fill:#002663;fill-opacity:1;"><g transform="translate(778.727247, 480.545576)"><path style="stroke:none" d="M 5.140625 -449.28125 L 223.359375 -449.28125 L 223.359375 -385.09375 L 149.546875 -385.09375 L 149.546875 0 L 78.9375 0 L 78.9375 -385.09375 L 5.140625 -385.09375 Z M 5.140625 -449.28125 "/></g></g><g style="fill:#002663;fill-opacity:1;"><g transform="translate(1007.216586, 480.545576)"><path style="stroke:none" d="M 25.671875 -449.28125 L 96.28125 -449.28125 L 96.28125 0 L 25.671875 0 Z M 25.671875 -449.28125 "/></g></g><g style="fill:#002663;fill-opacity:1;"><g transform="translate(1129.163025, 480.545576)"><path style="stroke:none" d="M 16.6875 -341.453125 C 16.6875 -377.828125 25.347656 -405.75 42.671875 -425.21875 C 60.003906 -444.6875 86 -454.421875 120.65625 -454.421875 C 155.320312 -454.421875 181.316406 -444.6875 198.640625 -425.21875 C 215.972656 -405.75 224.640625 -377.828125 224.640625 -341.453125 L 224.640625 -327.328125 L 157.890625 -327.328125 L 157.890625 -345.953125 C 157.890625 -362.203125 154.785156 -373.644531 148.578125 -380.28125 C 142.378906 -386.914062 133.71875 -390.234375 122.59375 -390.234375 C 111.46875 -390.234375 102.800781 -386.914062 96.59375 -380.28125 C 90.382812 -373.644531 87.28125 -362.203125 87.28125 -345.953125 C 87.28125 -330.546875 90.703125 -316.957031 97.546875 -305.1875 C 104.398438 -293.414062 112.960938 -282.289062 123.234375 -271.8125 C 133.503906 -261.332031 144.519531 -250.847656 156.28125 -240.359375 C 168.050781 -229.878906 179.070312 -218.429688 189.34375 -206.015625 C 199.613281 -193.609375 208.171875 -179.488281 215.015625 -163.65625 C 221.859375 -147.832031 225.28125 -129.222656 225.28125 -107.828125 C 225.28125 -71.453125 216.398438 -43.53125 198.640625 -24.0625 C 180.890625 -4.59375 154.679688 5.140625 120.015625 5.140625 C 85.359375 5.140625 59.148438 -4.59375 41.390625 -24.0625 C 23.640625 -43.53125 14.765625 -71.453125 14.765625 -107.828125 L 14.765625 -135.421875 L 81.515625 -135.421875 L 81.515625 -103.328125 C 81.515625 -87.066406 84.828125 -75.726562 91.453125 -69.3125 C 98.085938 -62.894531 106.96875 -59.6875 118.09375 -59.6875 C 129.21875 -59.6875 138.097656 -62.894531 144.734375 -69.3125 C 151.367188 -75.726562 154.6875 -87.066406 154.6875 -103.328125 C 154.6875 -118.734375 151.257812 -132.316406 144.40625 -144.078125 C 137.5625 -155.847656 129.003906 -166.972656 118.734375 -177.453125 C 108.460938 -187.941406 97.441406 -198.425781 85.671875 -208.90625 C 73.910156 -219.394531 62.894531 -230.84375 52.625 -243.25 C 42.351562 -255.65625 33.796875 -269.773438 26.953125 -285.609375 C 20.109375 -301.441406 16.6875 -320.054688 16.6875 -341.453125 Z M 16.6875 -341.453125 "/></g></g><g style="fill:#a01124;fill-opacity:1;"><g transform="translate(1321.902763, 1260.279165)"><path style="stroke:none" d="M 265.28125 -716.28125 L 532.34375 -716.28125 L 532.34375 -539.421875 L 265.28125 -539.421875 L 265.28125 -176.859375 L 601.3125 -176.859375 L 601.3125 0 L 70.75 0 L 70.75 -1238 L 601.3125 -1238 L 601.3125 -1061.140625 L 265.28125 -1061.140625 Z M 265.28125 -716.28125 "/></g></g><g style="fill:#a01124;fill-opacity:1;"><g transform="translate(1972.737984, 1260.279165)"><path style="stroke:none" d="M 482.828125 -359.015625 L 615.46875 -1238 L 886.0625 -1238 L 886.0625 0 L 702.125 0 L 702.125 -887.828125 L 567.71875 0 L 383.78125 0 L 238.765625 -875.453125 L 238.765625 0 L 68.96875 0 L 68.96875 -1238 L 339.5625 -1238 Z M 482.828125 -359.015625 "/></g></g><g style="fill:#a01124;fill-opacity:1;"><g transform="translate(2929.536724, 1260.279165)"><path style="stroke:none" d="M 482.828125 -359.015625 L 615.46875 -1238 L 886.0625 -1238 L 886.0625 0 L 702.125 0 L 702.125 -887.828125 L 567.71875 0 L 383.78125 0 L 238.765625 -875.453125 L 238.765625 0 L 68.96875 0 L 68.96875 -1238 L 339.5625 -1238 Z M 482.828125 -359.015625 "/></g></g><g style="fill:#a01124;fill-opacity:1;"><g transform="translate(3886.335746, 1260.279165)"><path style="stroke:none" d="M 249.375 -284.734375 C 249.375 -239.929688 258.507812 -208.390625 276.78125 -190.109375 C 295.0625 -171.835938 319.523438 -162.703125 350.171875 -162.703125 C 380.828125 -162.703125 405.289062 -171.835938 423.5625 -190.109375 C 441.84375 -208.390625 450.984375 -239.929688 450.984375 -284.734375 L 450.984375 -953.265625 C 450.984375 -998.066406 441.84375 -1029.601562 423.5625 -1047.875 C 405.289062 -1066.15625 380.828125 -1075.296875 350.171875 -1075.296875 C 319.523438 -1075.296875 295.0625 -1066.15625 276.78125 -1047.875 C 258.507812 -1029.601562 249.375 -998.066406 249.375 -953.265625 Z M 54.828125 -940.890625 C 54.828125 -1041.109375 80.175781 -1118.039062 130.875 -1171.6875 C 181.570312 -1225.332031 254.671875 -1252.15625 350.171875 -1252.15625 C 445.679688 -1252.15625 518.785156 -1225.332031 569.484375 -1171.6875 C 620.179688 -1118.039062 645.53125 -1041.109375 645.53125 -940.890625 L 645.53125 -297.125 C 645.53125 -196.90625 620.179688 -119.96875 569.484375 -66.3125 C 518.785156 -12.664062 445.679688 14.15625 350.171875 14.15625 C 254.671875 14.15625 181.570312 -12.664062 130.875 -66.3125 C 80.175781 -119.96875 54.828125 -196.90625 54.828125 -297.125 Z M 54.828125 -940.890625 "/></g></g><g style="fill:#a01124;fill-opacity:1;"><g transform="translate(4586.691247, 1260.279165)"><path style="stroke:none" d="M 244.0625 -896.671875 L 244.0625 0 L 68.96875 0 L 68.96875 -1238 L 313.03125 -1238 L 512.890625 -496.96875 L 512.890625 -1238 L 686.203125 -1238 L 686.203125 0 L 486.359375 0 Z M 244.0625 -896.671875 "/></g></g><g style="fill:#a01124;fill-opacity:1;"><g transform="translate(5341.872489, 1260.279165)"><path style="stroke:none" d="M 45.984375 -940.890625 C 45.984375 -1041.109375 69.859375 -1118.039062 117.609375 -1171.6875 C 165.359375 -1225.332031 236.988281 -1252.15625 332.5 -1252.15625 C 428 -1252.15625 499.625 -1225.332031 547.375 -1171.6875 C 595.125 -1118.039062 619 -1041.109375 619 -940.890625 L 619 -901.96875 L 435.0625 -901.96875 L 435.0625 -953.265625 C 435.0625 -998.066406 426.515625 -1029.601562 409.421875 -1047.875 C 392.328125 -1066.15625 368.453125 -1075.296875 337.796875 -1075.296875 C 307.140625 -1075.296875 283.265625 -1066.15625 266.171875 -1047.875 C 249.078125 -1029.601562 240.53125 -998.066406 240.53125 -953.265625 C 240.53125 -910.816406 249.960938 -873.378906 268.828125 -840.953125 C 287.691406 -808.535156 311.269531 -777.878906 339.5625 -748.984375 C 367.863281 -720.097656 398.222656 -691.210938 430.640625 -662.328125 C 463.066406 -633.441406 493.425781 -601.898438 521.71875 -567.703125 C 550.019531 -533.515625 573.601562 -494.609375 592.46875 -450.984375 C 611.332031 -407.359375 620.765625 -356.070312 620.765625 -297.125 C 620.765625 -196.90625 596.300781 -119.96875 547.375 -66.3125 C 498.445312 -12.664062 426.226562 14.15625 330.71875 14.15625 C 235.21875 14.15625 163 -12.664062 114.0625 -66.3125 C 65.132812 -119.96875 40.671875 -196.90625 40.671875 -297.125 L 40.671875 -373.171875 L 224.609375 -373.171875 L 224.609375 -284.734375 C 224.609375 -239.929688 233.742188 -208.6875 252.015625 -191 C 270.296875 -173.320312 294.765625 -164.484375 325.421875 -164.484375 C 356.078125 -164.484375 380.539062 -173.320312 398.8125 -191 C 417.09375 -208.6875 426.234375 -239.929688 426.234375 -284.734375 C 426.234375 -327.179688 416.800781 -364.617188 397.9375 -397.046875 C 379.070312 -429.472656 355.488281 -460.128906 327.1875 -489.015625 C 298.882812 -517.898438 268.519531 -546.785156 236.09375 -575.671875 C 203.675781 -604.554688 173.316406 -636.09375 145.015625 -670.28125 C 116.722656 -704.476562 93.144531 -743.390625 74.28125 -787.015625 C 55.414062 -830.640625 45.984375 -881.929688 45.984375 -940.890625 Z M 45.984375 -940.890625 "/></g></g><g clip-rule="nonzero" clip-path="url(#b6074313ab)"><path style=" stroke:none;fill-rule:nonzero;fill:#922330;fill-opacity:1;" d="M 0 1312.566406 L 6000.085938 1312.566406 L 6000.085938 1500 L 0 1500 Z M 0 1312.566406 "/></g><g style="fill:#ffffff;fill-opacity:1;"><g transform="translate(1809.738278, 1465.318342)"><path style="stroke:none" d="M 26.25 -68.0625 L 51.09375 -68.0625 L 51.09375 -50.5625 L 26.25 -50.5625 L 26.25 0 L 7 0 L 7 -122.484375 L 57.921875 -122.484375 L 57.921875 -104.984375 L 26.25 -104.984375 Z M 26.25 -68.0625 "/></g></g><g style="fill:#ffffff;fill-opacity:1;"><g transform="translate(1869.924811, 1465.318342)"><path style="stroke:none" d="M 24.671875 -28.171875 C 24.671875 -23.734375 25.570312 -20.609375 27.375 -18.796875 C 29.1875 -16.992188 31.609375 -16.09375 34.640625 -16.09375 C 37.671875 -16.09375 40.085938 -16.992188 41.890625 -18.796875 C 43.703125 -20.609375 44.609375 -23.734375 44.609375 -28.171875 L 44.609375 -94.3125 C 44.609375 -98.738281 43.703125 -101.851562 41.890625 -103.65625 C 40.085938 -105.46875 37.671875 -106.375 34.640625 -106.375 C 31.609375 -106.375 29.1875 -105.46875 27.375 -103.65625 C 25.570312 -101.851562 24.671875 -98.738281 24.671875 -94.3125 Z M 5.421875 -93.078125 C 5.421875 -102.992188 7.925781 -110.601562 12.9375 -115.90625 C 17.957031 -121.21875 25.191406 -123.875 34.640625 -123.875 C 44.085938 -123.875 51.316406 -121.21875 56.328125 -115.90625 C 61.347656 -110.601562 63.859375 -102.992188 63.859375 -93.078125 L 63.859375 -29.390625 C 63.859375 -19.472656 61.347656 -11.859375 56.328125 -6.546875 C 51.316406 -1.242188 44.085938 1.40625 34.640625 1.40625 C 25.191406 1.40625 17.957031 -1.242188 12.9375 -6.546875 C 7.925781 -11.859375 5.421875 -19.472656 5.421875 -29.390625 Z M 5.421875 -93.078125 "/></g></g><g style="fill:#ffffff;fill-opacity:1;"><g transform="translate(1939.209305, 1465.318342)"><path style="stroke:none" d="M 47.234375 0 C 47.003906 -0.8125 46.769531 -1.566406 46.53125 -2.265625 C 46.300781 -2.972656 46.097656 -3.847656 45.921875 -4.890625 C 45.753906 -5.941406 45.640625 -7.285156 45.578125 -8.921875 C 45.515625 -10.554688 45.484375 -12.597656 45.484375 -15.046875 L 45.484375 -34.296875 C 45.484375 -40.015625 44.492188 -44.035156 42.515625 -46.359375 C 40.535156 -48.691406 37.328125 -49.859375 32.890625 -49.859375 L 26.25 -49.859375 L 26.25 0 L 7 0 L 7 -122.484375 L 36.046875 -122.484375 C 46.078125 -122.484375 53.335938 -120.148438 57.828125 -115.484375 C 62.316406 -110.816406 64.5625 -103.757812 64.5625 -94.3125 L 64.5625 -84.6875 C 64.5625 -72.082031 60.363281 -63.800781 51.96875 -59.84375 C 56.863281 -57.851562 60.210938 -54.613281 62.015625 -50.125 C 63.828125 -45.632812 64.734375 -40.179688 64.734375 -33.765625 L 64.734375 -14.875 C 64.734375 -11.84375 64.847656 -9.1875 65.078125 -6.90625 C 65.316406 -4.632812 65.90625 -2.332031 66.84375 0 Z M 26.25 -104.984375 L 26.25 -67.359375 L 33.765625 -67.359375 C 37.378906 -67.359375 40.207031 -68.289062 42.25 -70.15625 C 44.289062 -72.03125 45.3125 -75.414062 45.3125 -80.3125 L 45.3125 -92.390625 C 45.3125 -96.816406 44.523438 -100.019531 42.953125 -102 C 41.378906 -103.988281 38.898438 -104.984375 35.515625 -104.984375 Z M 26.25 -104.984375 "/></g></g><g style="fill:#ffffff;fill-opacity:1;"><g transform="translate(2009.543565, 1465.318342)"><path style="stroke:none" d=""/></g></g><g style="fill:#ffffff;fill-opacity:1;"><g transform="translate(2036.662489, 1465.318342)"><path style="stroke:none" d="M 36.046875 -122.484375 C 46.078125 -122.484375 53.335938 -120.148438 57.828125 -115.484375 C 62.316406 -110.816406 64.5625 -103.757812 64.5625 -94.3125 L 64.5625 -89.9375 C 64.5625 -83.632812 63.566406 -78.441406 61.578125 -74.359375 C 59.597656 -70.273438 56.453125 -67.242188 52.140625 -65.265625 C 57.390625 -63.273438 61.09375 -60.035156 63.25 -55.546875 C 65.40625 -51.054688 66.484375 -45.546875 66.484375 -39.015625 L 66.484375 -29.046875 C 66.484375 -19.597656 64.035156 -12.394531 59.140625 -7.4375 C 54.242188 -2.476562 46.953125 0 37.265625 0 L 7 0 L 7 -122.484375 Z M 26.25 -55.109375 L 26.25 -17.5 L 37.265625 -17.5 C 40.535156 -17.5 43.015625 -18.375 44.703125 -20.125 C 46.390625 -21.875 47.234375 -25.019531 47.234375 -29.5625 L 47.234375 -40.25 C 47.234375 -45.957031 46.269531 -49.859375 44.34375 -51.953125 C 42.425781 -54.054688 39.25 -55.109375 34.8125 -55.109375 Z M 26.25 -104.984375 L 26.25 -72.609375 L 33.765625 -72.609375 C 37.378906 -72.609375 40.207031 -73.539062 42.25 -75.40625 C 44.289062 -77.28125 45.3125 -80.664062 45.3125 -85.5625 L 45.3125 -92.390625 C 45.3125 -96.816406 44.523438 -100.019531 42.953125 -102 C 41.378906 -103.988281 38.898438 -104.984375 35.515625 -104.984375 Z M 26.25 -104.984375 "/></g></g><g style="fill:#ffffff;fill-opacity:1;"><g transform="translate(2107.696579, 1465.318342)"><path style="stroke:none" d="M 26.25 -70.859375 L 52.671875 -70.859375 L 52.671875 -53.359375 L 26.25 -53.359375 L 26.25 -17.5 L 59.484375 -17.5 L 59.484375 0 L 7 0 L 7 -122.484375 L 59.484375 -122.484375 L 59.484375 -104.984375 L 26.25 -104.984375 Z M 26.25 -70.859375 "/></g></g><g style="fill:#ffffff;fill-opacity:1;"><g transform="translate(2172.082179, 1465.318342)"><path style="stroke:none" d="M 7 -122.484375 L 26.25 -122.484375 L 26.25 -17.5 L 57.921875 -17.5 L 57.921875 0 L 7 0 Z M 7 -122.484375 "/></g></g><g style="fill:#ffffff;fill-opacity:1;"><g transform="translate(2231.39388, 1465.318342)"><path style="stroke:none" d="M 7 -122.484375 L 26.25 -122.484375 L 26.25 -17.5 L 57.921875 -17.5 L 57.921875 0 L 7 0 Z M 7 -122.484375 "/></g></g><g style="fill:#ffffff;fill-opacity:1;"><g transform="translate(2290.705627, 1465.318342)"><path style="stroke:none" d=""/></g></g><g style="fill:#ffffff;fill-opacity:1;"><g transform="translate(2317.824551, 1465.318342)"><path style="stroke:none" d="M 62.8125 -45.671875 L 62.8125 -29.390625 C 62.8125 -19.472656 60.390625 -11.859375 55.546875 -6.546875 C 50.710938 -1.242188 43.570312 1.40625 34.125 1.40625 C 24.675781 1.40625 17.53125 -1.242188 12.6875 -6.546875 C 7.84375 -11.859375 5.421875 -19.472656 5.421875 -29.390625 L 5.421875 -93.078125 C 5.421875 -102.992188 7.84375 -110.601562 12.6875 -115.90625 C 17.53125 -121.21875 24.675781 -123.875 34.125 -123.875 C 43.570312 -123.875 50.710938 -121.21875 55.546875 -115.90625 C 60.390625 -110.601562 62.8125 -102.992188 62.8125 -93.078125 L 62.8125 -81.1875 L 44.609375 -81.1875 L 44.609375 -94.3125 C 44.609375 -98.738281 43.703125 -101.851562 41.890625 -103.65625 C 40.085938 -105.46875 37.671875 -106.375 34.640625 -106.375 C 31.609375 -106.375 29.1875 -105.46875 27.375 -103.65625 C 25.570312 -101.851562 24.671875 -98.738281 24.671875 -94.3125 L 24.671875 -28.171875 C 24.671875 -23.734375 25.570312 -20.640625 27.375 -18.890625 C 29.1875 -17.140625 31.609375 -16.265625 34.640625 -16.265625 C 37.671875 -16.265625 40.085938 -17.140625 41.890625 -18.890625 C 43.703125 -20.640625 44.609375 -23.734375 44.609375 -28.171875 L 44.609375 -45.671875 Z M 62.8125 -45.671875 "/></g></g><g style="fill:#ffffff;fill-opacity:1;"><g transform="translate(2385.359427, 1465.318342)"><path style="stroke:none" d="M 24.671875 -28.171875 C 24.671875 -23.734375 25.570312 -20.609375 27.375 -18.796875 C 29.1875 -16.992188 31.609375 -16.09375 34.640625 -16.09375 C 37.671875 -16.09375 40.085938 -16.992188 41.890625 -18.796875 C 43.703125 -20.609375 44.609375 -23.734375 44.609375 -28.171875 L 44.609375 -94.3125 C 44.609375 -98.738281 43.703125 -101.851562 41.890625 -103.65625 C 40.085938 -105.46875 37.671875 -106.375 34.640625 -106.375 C 31.609375 -106.375 29.1875 -105.46875 27.375 -103.65625 C 25.570312 -101.851562 24.671875 -98.738281 24.671875 -94.3125 Z M 5.421875 -93.078125 C 5.421875 -102.992188 7.925781 -110.601562 12.9375 -115.90625 C 17.957031 -121.21875 25.191406 -123.875 34.640625 -123.875 C 44.085938 -123.875 51.316406 -121.21875 56.328125 -115.90625 C 61.347656 -110.601562 63.859375 -102.992188 63.859375 -93.078125 L 63.859375 -29.390625 C 63.859375 -19.472656 61.347656 -11.859375 56.328125 -6.546875 C 51.316406 -1.242188 44.085938 1.40625 34.640625 1.40625 C 25.191406 1.40625 17.957031 -1.242188 12.9375 -6.546875 C 7.925781 -11.859375 5.421875 -19.472656 5.421875 -29.390625 Z M 5.421875 -93.078125 "/></g></g><g style="fill:#ffffff;fill-opacity:1;"><g transform="translate(2454.643921, 1465.318342)"><path style="stroke:none" d="M 25.375 -122.484375 L 25.375 -28 C 25.375 -23.5625 26.273438 -20.46875 28.078125 -18.71875 C 29.890625 -16.96875 32.3125 -16.09375 35.34375 -16.09375 C 38.375 -16.09375 40.789062 -16.96875 42.59375 -18.71875 C 44.40625 -20.46875 45.3125 -23.5625 45.3125 -28 L 45.3125 -122.484375 L 63.515625 -122.484375 L 63.515625 -29.21875 C 63.515625 -19.300781 61.09375 -11.6875 56.25 -6.375 C 51.40625 -1.070312 44.257812 1.578125 34.8125 1.578125 C 25.363281 1.578125 18.21875 -1.070312 13.375 -6.375 C 8.539062 -11.6875 6.125 -19.300781 6.125 -29.21875 L 6.125 -122.484375 Z M 25.375 -122.484375 "/></g></g><g style="fill:#ffffff;fill-opacity:1;"><g transform="translate(2524.278329, 1465.318342)"><path style="stroke:none" d="M 24.140625 -88.703125 L 24.140625 0 L 6.828125 0 L 6.828125 -122.484375 L 30.96875 -122.484375 L 50.734375 -49.171875 L 50.734375 -122.484375 L 67.890625 -122.484375 L 67.890625 0 L 48.109375 0 Z M 24.140625 -88.703125 "/></g></g><g style="fill:#ffffff;fill-opacity:1;"><g transform="translate(2598.98659, 1465.318342)"><path style="stroke:none" d="M 1.40625 -122.484375 L 60.890625 -122.484375 L 60.890625 -104.984375 L 40.765625 -104.984375 L 40.765625 0 L 21.515625 0 L 21.515625 -104.984375 L 1.40625 -104.984375 Z M 1.40625 -122.484375 "/></g></g><g style="fill:#ffffff;fill-opacity:1;"><g transform="translate(2661.272657, 1465.318342)"><path style="stroke:none" d="M 25.015625 -40.59375 L 0.703125 -122.484375 L 20.828125 -122.484375 L 35.515625 -66.65625 L 50.21875 -122.484375 L 68.59375 -122.484375 L 44.265625 -40.59375 L 44.265625 0 L 25.015625 0 Z M 25.015625 -40.59375 "/></g></g><g style="fill:#ffffff;fill-opacity:1;"><g transform="translate(2730.557197, 1465.318342)"><path style="stroke:none" d=""/></g></g><g style="fill:#ffffff;fill-opacity:1;"><g transform="translate(2757.676121, 1465.318342)"><path style="stroke:none" d="M 62.8125 -45.671875 L 62.8125 -29.390625 C 62.8125 -19.472656 60.390625 -11.859375 55.546875 -6.546875 C 50.710938 -1.242188 43.570312 1.40625 34.125 1.40625 C 24.675781 1.40625 17.53125 -1.242188 12.6875 -6.546875 C 7.84375 -11.859375 5.421875 -19.472656 5.421875 -29.390625 L 5.421875 -93.078125 C 5.421875 -102.992188 7.84375 -110.601562 12.6875 -115.90625 C 17.53125 -121.21875 24.675781 -123.875 34.125 -123.875 C 43.570312 -123.875 50.710938 -121.21875 55.546875 -115.90625 C 60.390625 -110.601562 62.8125 -102.992188 62.8125 -93.078125 L 62.8125 -81.1875 L 44.609375 -81.1875 L 44.609375 -94.3125 C 44.609375 -98.738281 43.703125 -101.851562 41.890625 -103.65625 C 40.085938 -105.46875 37.671875 -106.375 34.640625 -106.375 C 31.609375 -106.375 29.1875 -105.46875 27.375 -103.65625 C 25.570312 -101.851562 24.671875 -98.738281 24.671875 -94.3125 L 24.671875 -28.171875 C 24.671875 -23.734375 25.570312 -20.640625 27.375 -18.890625 C 29.1875 -17.140625 31.609375 -16.265625 34.640625 -16.265625 C 37.671875 -16.265625 40.085938 -17.140625 41.890625 -18.890625 C 43.703125 -20.640625 44.609375 -23.734375 44.609375 -28.171875 L 44.609375 -45.671875 Z M 62.8125 -45.671875 "/></g></g><g style="fill:#ffffff;fill-opacity:1;"><g transform="translate(2825.210997, 1465.318342)"><path style="stroke:none" d="M 24.671875 -28.171875 C 24.671875 -23.734375 25.570312 -20.609375 27.375 -18.796875 C 29.1875 -16.992188 31.609375 -16.09375 34.640625 -16.09375 C 37.671875 -16.09375 40.085938 -16.992188 41.890625 -18.796875 C 43.703125 -20.609375 44.609375 -23.734375 44.609375 -28.171875 L 44.609375 -94.3125 C 44.609375 -98.738281 43.703125 -101.851562 41.890625 -103.65625 C 40.085938 -105.46875 37.671875 -106.375 34.640625 -106.375 C 31.609375 -106.375 29.1875 -105.46875 27.375 -103.65625 C 25.570312 -101.851562 24.671875 -98.738281 24.671875 -94.3125 Z M 5.421875 -93.078125 C 5.421875 -102.992188 7.925781 -110.601562 12.9375 -115.90625 C 17.957031 -121.21875 25.191406 -123.875 34.640625 -123.875 C 44.085938 -123.875 51.316406 -121.21875 56.328125 -115.90625 C 61.347656 -110.601562 63.859375 -102.992188 63.859375 -93.078125 L 63.859375 -29.390625 C 63.859375 -19.472656 61.347656 -11.859375 56.328125 -6.546875 C 51.316406 -1.242188 44.085938 1.40625 34.640625 1.40625 C 25.191406 1.40625 17.957031 -1.242188 12.9375 -6.546875 C 7.925781 -11.859375 5.421875 -19.472656 5.421875 -29.390625 Z M 5.421875 -93.078125 "/></g></g><g style="fill:#ffffff;fill-opacity:1;"><g transform="translate(2894.495445, 1465.318342)"><path style="stroke:none" d="M 47.765625 -35.515625 L 60.890625 -122.484375 L 87.65625 -122.484375 L 87.65625 0 L 69.46875 0 L 69.46875 -87.828125 L 56.171875 0 L 37.96875 0 L 23.625 -86.609375 L 23.625 0 L 6.828125 0 L 6.828125 -122.484375 L 33.59375 -122.484375 Z M 47.765625 -35.515625 "/></g></g><g style="fill:#ffffff;fill-opacity:1;"><g transform="translate(2989.149246, 1465.318342)"><path style="stroke:none" d="M 47.765625 -35.515625 L 60.890625 -122.484375 L 87.65625 -122.484375 L 87.65625 0 L 69.46875 0 L 69.46875 -87.828125 L 56.171875 0 L 37.96875 0 L 23.625 -86.609375 L 23.625 0 L 6.828125 0 L 6.828125 -122.484375 L 33.59375 -122.484375 Z M 47.765625 -35.515625 "/></g></g><g style="fill:#ffffff;fill-opacity:1;"><g transform="translate(3083.803046, 1465.318342)"><path style="stroke:none" d="M 7 -122.484375 L 26.25 -122.484375 L 26.25 0 L 7 0 Z M 7 -122.484375 "/></g></g><g style="fill:#ffffff;fill-opacity:1;"><g transform="translate(3117.045658, 1465.318342)"><path style="stroke:none" d="M 4.546875 -93.078125 C 4.546875 -102.992188 6.90625 -110.601562 11.625 -115.90625 C 16.351562 -121.21875 23.441406 -123.875 32.890625 -123.875 C 42.335938 -123.875 49.421875 -121.21875 54.140625 -115.90625 C 58.867188 -110.601562 61.234375 -102.992188 61.234375 -93.078125 L 61.234375 -89.234375 L 43.046875 -89.234375 L 43.046875 -94.3125 C 43.046875 -98.738281 42.195312 -101.851562 40.5 -103.65625 C 38.8125 -105.46875 36.453125 -106.375 33.421875 -106.375 C 30.390625 -106.375 28.023438 -105.46875 26.328125 -103.65625 C 24.640625 -101.851562 23.796875 -98.738281 23.796875 -94.3125 C 23.796875 -90.113281 24.726562 -86.410156 26.59375 -83.203125 C 28.457031 -79.992188 30.789062 -76.957031 33.59375 -74.09375 C 36.394531 -71.238281 39.398438 -68.378906 42.609375 -65.515625 C 45.816406 -62.660156 48.816406 -59.539062 51.609375 -56.15625 C 54.410156 -52.78125 56.742188 -48.929688 58.609375 -44.609375 C 60.472656 -40.296875 61.40625 -35.222656 61.40625 -29.390625 C 61.40625 -19.472656 58.984375 -11.859375 54.140625 -6.546875 C 49.304688 -1.242188 42.164062 1.40625 32.71875 1.40625 C 23.269531 1.40625 16.125 -1.242188 11.28125 -6.546875 C 6.445312 -11.859375 4.03125 -19.472656 4.03125 -29.390625 L 4.03125 -36.921875 L 22.21875 -36.921875 L 22.21875 -28.171875 C 22.21875 -23.734375 23.117188 -20.640625 24.921875 -18.890625 C 26.734375 -17.140625 29.15625 -16.265625 32.1875 -16.265625 C 35.226562 -16.265625 37.648438 -17.140625 39.453125 -18.890625 C 41.265625 -20.640625 42.171875 -23.734375 42.171875 -28.171875 C 42.171875 -32.367188 41.234375 -36.070312 39.359375 -39.28125 C 37.492188 -42.488281 35.160156 -45.519531 32.359375 -48.375 C 29.566406 -51.238281 26.566406 -54.097656 23.359375 -56.953125 C 20.148438 -59.804688 17.144531 -62.925781 14.34375 -66.3125 C 11.539062 -69.695312 9.207031 -73.546875 7.34375 -77.859375 C 5.476562 -82.171875 4.546875 -87.242188 4.546875 -93.078125 Z M 4.546875 -93.078125 "/></g></g><g style="fill:#ffffff;fill-opacity:1;"><g transform="translate(3182.480955, 1465.318342)"><path style="stroke:none" d="M 4.546875 -93.078125 C 4.546875 -102.992188 6.90625 -110.601562 11.625 -115.90625 C 16.351562 -121.21875 23.441406 -123.875 32.890625 -123.875 C 42.335938 -123.875 49.421875 -121.21875 54.140625 -115.90625 C 58.867188 -110.601562 61.234375 -102.992188 61.234375 -93.078125 L 61.234375 -89.234375 L 43.046875 -89.234375 L 43.046875 -94.3125 C 43.046875 -98.738281 42.195312 -101.851562 40.5 -103.65625 C 38.8125 -105.46875 36.453125 -106.375 33.421875 -106.375 C 30.390625 -106.375 28.023438 -105.46875 26.328125 -103.65625 C 24.640625 -101.851562 23.796875 -98.738281 23.796875 -94.3125 C 23.796875 -90.113281 24.726562 -86.410156 26.59375 -83.203125 C 28.457031 -79.992188 30.789062 -76.957031 33.59375 -74.09375 C 36.394531 -71.238281 39.398438 -68.378906 42.609375 -65.515625 C 45.816406 -62.660156 48.816406 -59.539062 51.609375 -56.15625 C 54.410156 -52.78125 56.742188 -48.929688 58.609375 -44.609375 C 60.472656 -40.296875 61.40625 -35.222656 61.40625 -29.390625 C 61.40625 -19.472656 58.984375 -11.859375 54.140625 -6.546875 C 49.304688 -1.242188 42.164062 1.40625 32.71875 1.40625 C 23.269531 1.40625 16.125 -1.242188 11.28125 -6.546875 C 6.445312 -11.859375 4.03125 -19.472656 4.03125 -29.390625 L 4.03125 -36.921875 L 22.21875 -36.921875 L 22.21875 -28.171875 C 22.21875 -23.734375 23.117188 -20.640625 24.921875 -18.890625 C 26.734375 -17.140625 29.15625 -16.265625 32.1875 -16.265625 C 35.226562 -16.265625 37.648438 -17.140625 39.453125 -18.890625 C 41.265625 -20.640625 42.171875 -23.734375 42.171875 -28.171875 C 42.171875 -32.367188 41.234375 -36.070312 39.359375 -39.28125 C 37.492188 -42.488281 35.160156 -45.519531 32.359375 -48.375 C 29.566406 -51.238281 26.566406 -54.097656 23.359375 -56.953125 C 20.148438 -59.804688 17.144531 -62.925781 14.34375 -66.3125 C 11.539062 -69.695312 9.207031 -73.546875 7.34375 -77.859375 C 5.476562 -82.171875 4.546875 -87.242188 4.546875 -93.078125 Z M 4.546875 -93.078125 "/></g></g><g style="fill:#ffffff;fill-opacity:1;"><g transform="translate(3247.916343, 1465.318342)"><path style="stroke:none" d="M 7 -122.484375 L 26.25 -122.484375 L 26.25 0 L 7 0 Z M 7 -122.484375 "/></g></g><g style="fill:#ffffff;fill-opacity:1;"><g transform="translate(3281.158863, 1465.318342)"><path style="stroke:none" d="M 24.671875 -28.171875 C 24.671875 -23.734375 25.570312 -20.609375 27.375 -18.796875 C 29.1875 -16.992188 31.609375 -16.09375 34.640625 -16.09375 C 37.671875 -16.09375 40.085938 -16.992188 41.890625 -18.796875 C 43.703125 -20.609375 44.609375 -23.734375 44.609375 -28.171875 L 44.609375 -94.3125 C 44.609375 -98.738281 43.703125 -101.851562 41.890625 -103.65625 C 40.085938 -105.46875 37.671875 -106.375 34.640625 -106.375 C 31.609375 -106.375 29.1875 -105.46875 27.375 -103.65625 C 25.570312 -101.851562 24.671875 -98.738281 24.671875 -94.3125 Z M 5.421875 -93.078125 C 5.421875 -102.992188 7.925781 -110.601562 12.9375 -115.90625 C 17.957031 -121.21875 25.191406 -123.875 34.640625 -123.875 C 44.085938 -123.875 51.316406 -121.21875 56.328125 -115.90625 C 61.347656 -110.601562 63.859375 -102.992188 63.859375 -93.078125 L 63.859375 -29.390625 C 63.859375 -19.472656 61.347656 -11.859375 56.328125 -6.546875 C 51.316406 -1.242188 44.085938 1.40625 34.640625 1.40625 C 25.191406 1.40625 17.957031 -1.242188 12.9375 -6.546875 C 7.925781 -11.859375 5.421875 -19.472656 5.421875 -29.390625 Z M 5.421875 -93.078125 "/></g></g><g style="fill:#ffffff;fill-opacity:1;"><g transform="translate(3350.443403, 1465.318342)"><path style="stroke:none" d="M 24.140625 -88.703125 L 24.140625 0 L 6.828125 0 L 6.828125 -122.484375 L 30.96875 -122.484375 L 50.734375 -49.171875 L 50.734375 -122.484375 L 67.890625 -122.484375 L 67.890625 0 L 48.109375 0 Z M 24.140625 -88.703125 "/></g></g><g style="fill:#ffffff;fill-opacity:1;"><g transform="translate(3425.15171, 1465.318342)"><path style="stroke:none" d="M 26.25 -70.859375 L 52.671875 -70.859375 L 52.671875 -53.359375 L 26.25 -53.359375 L 26.25 -17.5 L 59.484375 -17.5 L 59.484375 0 L 7 0 L 7 -122.484375 L 59.484375 -122.484375 L 59.484375 -104.984375 L 26.25 -104.984375 Z M 26.25 -70.859375 "/></g></g><g style="fill:#ffffff;fill-opacity:1;"><g transform="translate(3489.537263, 1465.318342)"><path style="stroke:none" d="M 47.234375 0 C 47.003906 -0.8125 46.769531 -1.566406 46.53125 -2.265625 C 46.300781 -2.972656 46.097656 -3.847656 45.921875 -4.890625 C 45.753906 -5.941406 45.640625 -7.285156 45.578125 -8.921875 C 45.515625 -10.554688 45.484375 -12.597656 45.484375 -15.046875 L 45.484375 -34.296875 C 45.484375 -40.015625 44.492188 -44.035156 42.515625 -46.359375 C 40.535156 -48.691406 37.328125 -49.859375 32.890625 -49.859375 L 26.25 -49.859375 L 26.25 0 L 7 0 L 7 -122.484375 L 36.046875 -122.484375 C 46.078125 -122.484375 53.335938 -120.148438 57.828125 -115.484375 C 62.316406 -110.816406 64.5625 -103.757812 64.5625 -94.3125 L 64.5625 -84.6875 C 64.5625 -72.082031 60.363281 -63.800781 51.96875 -59.84375 C 56.863281 -57.851562 60.210938 -54.613281 62.015625 -50.125 C 63.828125 -45.632812 64.734375 -40.179688 64.734375 -33.765625 L 64.734375 -14.875 C 64.734375 -11.84375 64.847656 -9.1875 65.078125 -6.90625 C 65.316406 -4.632812 65.90625 -2.332031 66.84375 0 Z M 26.25 -104.984375 L 26.25 -67.359375 L 33.765625 -67.359375 C 37.378906 -67.359375 40.207031 -68.289062 42.25 -70.15625 C 44.289062 -72.03125 45.3125 -75.414062 45.3125 -80.3125 L 45.3125 -92.390625 C 45.3125 -96.816406 44.523438 -100.019531 42.953125 -102 C 41.378906 -103.988281 38.898438 -104.984375 35.515625 -104.984375 Z M 26.25 -104.984375 "/></g></g><g style="fill:#ffffff;fill-opacity:1;"><g transform="translate(3559.871547, 1465.318342)"><path style="stroke:none" d=""/></g></g><g style="fill:#ffffff;fill-opacity:1;"><g transform="translate(3586.99038, 1465.318342)"><path style="stroke:none" d="M 35.34375 -122.484375 C 45.019531 -122.484375 52.21875 -119.914062 56.9375 -114.78125 C 61.664062 -109.644531 64.03125 -102.117188 64.03125 -92.203125 L 64.03125 -76.28125 C 64.03125 -66.363281 61.664062 -58.835938 56.9375 -53.703125 C 52.21875 -48.578125 45.019531 -46.015625 35.34375 -46.015625 L 26.25 -46.015625 L 26.25 0 L 7 0 L 7 -122.484375 Z M 26.25 -104.984375 L 26.25 -63.515625 L 35.34375 -63.515625 C 38.375 -63.515625 40.707031 -64.328125 42.34375 -65.953125 C 43.976562 -67.585938 44.796875 -70.625 44.796875 -75.0625 L 44.796875 -93.4375 C 44.796875 -97.863281 43.976562 -100.894531 42.34375 -102.53125 C 40.707031 -104.164062 38.375 -104.984375 35.34375 -104.984375 Z M 26.25 -104.984375 "/></g></g><g style="fill:#ffffff;fill-opacity:1;"><g transform="translate(3653.825518, 1465.318342)"><path style="stroke:none" d="M 47.234375 0 C 47.003906 -0.8125 46.769531 -1.566406 46.53125 -2.265625 C 46.300781 -2.972656 46.097656 -3.847656 45.921875 -4.890625 C 45.753906 -5.941406 45.640625 -7.285156 45.578125 -8.921875 C 45.515625 -10.554688 45.484375 -12.597656 45.484375 -15.046875 L 45.484375 -34.296875 C 45.484375 -40.015625 44.492188 -44.035156 42.515625 -46.359375 C 40.535156 -48.691406 37.328125 -49.859375 32.890625 -49.859375 L 26.25 -49.859375 L 26.25 0 L 7 0 L 7 -122.484375 L 36.046875 -122.484375 C 46.078125 -122.484375 53.335938 -120.148438 57.828125 -115.484375 C 62.316406 -110.816406 64.5625 -103.757812 64.5625 -94.3125 L 64.5625 -84.6875 C 64.5625 -72.082031 60.363281 -63.800781 51.96875 -59.84375 C 56.863281 -57.851562 60.210938 -54.613281 62.015625 -50.125 C 63.828125 -45.632812 64.734375 -40.179688 64.734375 -33.765625 L 64.734375 -14.875 C 64.734375 -11.84375 64.847656 -9.1875 65.078125 -6.90625 C 65.316406 -4.632812 65.90625 -2.332031 66.84375 0 Z M 26.25 -104.984375 L 26.25 -67.359375 L 33.765625 -67.359375 C 37.378906 -67.359375 40.207031 -68.289062 42.25 -70.15625 C 44.289062 -72.03125 45.3125 -75.414062 45.3125 -80.3125 L 45.3125 -92.390625 C 45.3125 -96.816406 44.523438 -100.019531 42.953125 -102 C 41.378906 -103.988281 38.898438 -104.984375 35.515625 -104.984375 Z M 26.25 -104.984375 "/></g></g><g style="fill:#ffffff;fill-opacity:1;"><g transform="translate(3724.159802, 1465.318342)"><path style="stroke:none" d="M 26.25 -70.859375 L 52.671875 -70.859375 L 52.671875 -53.359375 L 26.25 -53.359375 L 26.25 -17.5 L 59.484375 -17.5 L 59.484375 0 L 7 0 L 7 -122.484375 L 59.484375 -122.484375 L 59.484375 -104.984375 L 26.25 -104.984375 Z M 26.25 -70.859375 "/></g></g><g style="fill:#ffffff;fill-opacity:1;"><g transform="translate(3788.545355, 1465.318342)"><path style="stroke:none" d="M 62.8125 -45.671875 L 62.8125 -29.390625 C 62.8125 -19.472656 60.390625 -11.859375 55.546875 -6.546875 C 50.710938 -1.242188 43.570312 1.40625 34.125 1.40625 C 24.675781 1.40625 17.53125 -1.242188 12.6875 -6.546875 C 7.84375 -11.859375 5.421875 -19.472656 5.421875 -29.390625 L 5.421875 -93.078125 C 5.421875 -102.992188 7.84375 -110.601562 12.6875 -115.90625 C 17.53125 -121.21875 24.675781 -123.875 34.125 -123.875 C 43.570312 -123.875 50.710938 -121.21875 55.546875 -115.90625 C 60.390625 -110.601562 62.8125 -102.992188 62.8125 -93.078125 L 62.8125 -81.1875 L 44.609375 -81.1875 L 44.609375 -94.3125 C 44.609375 -98.738281 43.703125 -101.851562 41.890625 -103.65625 C 40.085938 -105.46875 37.671875 -106.375 34.640625 -106.375 C 31.609375 -106.375 29.1875 -105.46875 27.375 -103.65625 C 25.570312 -101.851562 24.671875 -98.738281 24.671875 -94.3125 L 24.671875 -28.171875 C 24.671875 -23.734375 25.570312 -20.640625 27.375 -18.890625 C 29.1875 -17.140625 31.609375 -16.265625 34.640625 -16.265625 C 37.671875 -16.265625 40.085938 -17.140625 41.890625 -18.890625 C 43.703125 -20.640625 44.609375 -23.734375 44.609375 -28.171875 L 44.609375 -45.671875 Z M 62.8125 -45.671875 "/></g></g><g style="fill:#ffffff;fill-opacity:1;"><g transform="translate(3856.08014, 1465.318342)"><path style="stroke:none" d="M 7 -122.484375 L 26.25 -122.484375 L 26.25 0 L 7 0 Z M 7 -122.484375 "/></g></g><g style="fill:#ffffff;fill-opacity:1;"><g transform="translate(3889.322751, 1465.318342)"><path style="stroke:none" d="M 24.140625 -88.703125 L 24.140625 0 L 6.828125 0 L 6.828125 -122.484375 L 30.96875 -122.484375 L 50.734375 -49.171875 L 50.734375 -122.484375 L 67.890625 -122.484375 L 67.890625 0 L 48.109375 0 Z M 24.140625 -88.703125 "/></g></g><g style="fill:#ffffff;fill-opacity:1;"><g transform="translate(3964.031058, 1465.318342)"><path style="stroke:none" d="M 62.8125 -45.671875 L 62.8125 -29.390625 C 62.8125 -19.472656 60.390625 -11.859375 55.546875 -6.546875 C 50.710938 -1.242188 43.570312 1.40625 34.125 1.40625 C 24.675781 1.40625 17.53125 -1.242188 12.6875 -6.546875 C 7.84375 -11.859375 5.421875 -19.472656 5.421875 -29.390625 L 5.421875 -93.078125 C 5.421875 -102.992188 7.84375 -110.601562 12.6875 -115.90625 C 17.53125 -121.21875 24.675781 -123.875 34.125 -123.875 C 43.570312 -123.875 50.710938 -121.21875 55.546875 -115.90625 C 60.390625 -110.601562 62.8125 -102.992188 62.8125 -93.078125 L 62.8125 -81.1875 L 44.609375 -81.1875 L 44.609375 -94.3125 C 44.609375 -98.738281 43.703125 -101.851562 41.890625 -103.65625 C 40.085938 -105.46875 37.671875 -106.375 34.640625 -106.375 C 31.609375 -106.375 29.1875 -105.46875 27.375 -103.65625 C 25.570312 -101.851562 24.671875 -98.738281 24.671875 -94.3125 L 24.671875 -28.171875 C 24.671875 -23.734375 25.570312 -20.640625 27.375 -18.890625 C 29.1875 -17.140625 31.609375 -16.265625 34.640625 -16.265625 C 37.671875 -16.265625 40.085938 -17.140625 41.890625 -18.890625 C 43.703125 -20.640625 44.609375 -23.734375 44.609375 -28.171875 L 44.609375 -45.671875 Z M 62.8125 -45.671875 "/></g></g><g style="fill:#ffffff;fill-opacity:1;"><g transform="translate(4031.565842, 1465.318342)"><path style="stroke:none" d="M 1.40625 -122.484375 L 60.890625 -122.484375 L 60.890625 -104.984375 L 40.765625 -104.984375 L 40.765625 0 L 21.515625 0 L 21.515625 -104.984375 L 1.40625 -104.984375 Z M 1.40625 -122.484375 "/></g></g><g style="fill:#ffffff;fill-opacity:1;"><g transform="translate(4093.851909, 1465.318342)"><path style="stroke:none" d=""/></g></g><g style="fill:#ffffff;fill-opacity:1;"><g transform="translate(4120.970925, 1465.318342)"><path style="stroke:none" d="M 2.453125 -39.71875 L 37.4375 -122.484375 L 58.4375 -122.484375 L 58.4375 -39.71875 L 67.53125 -39.71875 L 67.53125 -22.21875 L 58.4375 -22.21875 L 58.4375 0 L 39.546875 0 L 39.546875 -22.21875 L 2.453125 -22.21875 Z M 39.546875 -39.71875 L 39.546875 -85.734375 L 20.125 -39.71875 Z M 39.546875 -39.71875 "/></g></g></g></svg>